<?xml version="1.0" encoding="UTF-8" standalone="no"?><!DOCTYPE svg PUBLIC "-//W3C//DTD SVG 1.1//EN" "http://www.w3.org/Graphics/SVG/1.1/DTD/svg11.dtd"><svg width="100%" height="100%" viewBox="0 0 49 62" version="1.1" xmlns="http://www.w3.org/2000/svg" xmlns:xlink="http://www.w3.org/1999/xlink" xml:space="preserve" style="fill-rule:evenodd;clip-rule:evenodd;stroke-linejoin:round;stroke-miterlimit:1.41421;"><g><path d="M28.617,61.5l-15.951,0l-12.166,0l0,-61l12.937,0m6.597,45.15l0,-29.386c0,-2.399 -0.486,-4.255 -1.457,-5.569c-0.971,-1.313 -2.741,-1.97 -5.312,-1.97l-4.026,0l0,44.55" style="fill:none;stroke:#48cf8f;stroke-width:1px;"/><path d="M28.772,44.794c0,5.711 0.016,13.636 0.016,13.636" style="fill:none;stroke:#48cf8f;stroke-width:1px;"/><path d="M20.034,16.264c0,-2.399 -0.486,-4.255 -1.457,-5.569c-0.971,-1.313 -2.741,-1.97 -5.312,-1.97l-4.026,0" style="fill:none;stroke:url(#_Linear1);stroke-width:1px;"/><path d="M9.254,53.419l4.027,0c2.456,0 4.198,-0.614 5.226,-1.842c1.028,-1.228 1.542,-3.156 1.542,-5.783" style="fill:none;stroke:#48cf8f;stroke-width:1px;stroke-linecap:square;"/><path d="M9.254,0.5l4.198,0c4.969,0 8.767,1.385 11.395,4.155c2.627,2.77 3.941,6.64 3.941,11.609" style="fill:none;stroke:url(#_Linear2);stroke-width:1px;"/><path d="M28.758,15.5l0,11.131l10.812,0l0,-26.131l8.753,0l0,61l-8.753,0l0,-27.159l-10.812,0l0,27.159l-8.753,0l0,-46" style="fill:none;stroke:#42b0c0;stroke-width:1px;"/></g><defs><linearGradient id="_Linear1" x1="0" y1="0" x2="1" y2="0" gradientUnits="userSpaceOnUse" gradientTransform="matrix(4.64607,7.53933,-7.53933,4.64607,15.3876,8.72472)"><stop offset="0%" style="stop-color:#48cf8f;stop-opacity:1"/><stop offset="100%" style="stop-color:#42b0c0;stop-opacity:1"/></linearGradient><linearGradient id="_Linear2" x1="0" y1="0" x2="1" y2="0" gradientUnits="userSpaceOnUse" gradientTransform="matrix(19.5337,0,0,15.764,9.25393,8.38202)"><stop offset="0%" style="stop-color:#48cf8f;stop-opacity:1"/><stop offset="100%" style="stop-color:#42b0c0;stop-opacity:1"/></linearGradient></defs></svg>